<?xml version="1.0" encoding="UTF-8" standalone="no"?>
<!-- Created with Inkscape (http://www.inkscape.org/) -->

<svg
   xmlns:dc="http://purl.org/dc/elements/1.1/"
   xmlns:cc="http://creativecommons.org/ns#"
   xmlns:rdf="http://www.w3.org/1999/02/22-rdf-syntax-ns#"
   xmlns:svg="http://www.w3.org/2000/svg"
   xmlns="http://www.w3.org/2000/svg"
   xmlns:sodipodi="http://sodipodi.sourceforge.net/DTD/sodipodi-0.dtd"
   xmlns:inkscape="http://www.inkscape.org/namespaces/inkscape"
   version="1.1"
   id="svg4039"
   width="453"
   height="243"
   viewBox="0 0 453 243"
   sodipodi:docname="Portfolio_Logo.svg"
   inkscape:version="0.92.4 (f8dce91, 2019-08-02)">
  <metadata
     id="metadata4045">
    <rdf:RDF>
      <cc:Work
         rdf:about="">
        <dc:format>image/svg+xml</dc:format>
        <dc:type
           rdf:resource="http://purl.org/dc/dcmitype/StillImage" />
        <dc:title></dc:title>
      </cc:Work>
    </rdf:RDF>
  </metadata>
  <defs
     id="defs4043" />
  <sodipodi:namedview
     pagecolor="#ffffff"
     bordercolor="#666666"
     borderopacity="1"
     objecttolerance="10"
     gridtolerance="10"
     guidetolerance="10"
     inkscape:pageopacity="0"
     inkscape:pageshadow="2"
     inkscape:window-width="1920"
     inkscape:window-height="1017"
     id="namedview4041"
     showgrid="false"
     inkscape:zoom="1.131683"
     inkscape:cx="293.87879"
     inkscape:cy="158.61153"
     inkscape:window-x="0"
     inkscape:window-y="30"
     inkscape:window-maximized="1"
     inkscape:current-layer="svg4039" />
  <g
     id="g4049"
     transform="translate(-1.5620731,-1.8744823)">
    <path
       style="fill:#8c8c8c;fill-opacity:1"
       d="m 163.44614,198.5 c 4e-4,-17.6 0.13647,-24.65916 0.30237,-15.68703 0.1659,8.97214 0.16557,23.37214 -7.3e-4,32 -0.1663,8.62787 -0.30204,1.28703 -0.30164,-16.31297 z m 62.03011,-47 c 8e-5,-43.45 0.12314,-61.079027 0.27348,-39.17562 0.15034,21.90341 0.15028,57.45341 -1.4e-4,79 -0.15041,21.54659 -0.27342,3.62562 -0.27334,-39.82438 z m 33.93084,62.5 c 0,-9.075 0.1516,-12.7875 0.3369,-8.25 0.18529,4.5375 0.18529,11.9625 0,16.5 -0.1853,4.5375 -0.3369,0.825 -0.3369,-8.25 z M 384.23501,167.75757 384,136.01514 321.75,135.75757 259.5,135.5 259.22409,120.27526 258.94818,105.05052 243.22409,104.74797 227.5,104.44541 243.75,104.22271 260,104 v 15.5 15.5 h 62.03138 c 48.95887,0 62.13326,0.26548 62.5148,1.25976 0.26588,0.69286 0.35751,15.20536 0.20363,32.25 L 384.47001,199.5 Z M 446.44541,167 c 0,-17.325 0.13621,-24.4125 0.30269,-15.75 0.16648,8.6625 0.16648,22.8375 0,31.5 -0.16648,8.6625 -0.30269,1.575 -0.30269,-15.75 z M 163.44614,104.5 c 4e-4,-17.6 0.13647,-24.659161 0.30237,-15.687025 0.1659,8.972136 0.16557,23.372135 -7.3e-4,31.999995 -0.1663,8.62787 -0.30204,1.28703 -0.30164,-16.31297 z M 38.460643,57.25107 38.5,41.5 54.25107,41.460643 70.002139,41.421285 54.526334,41.735907 39.050529,42.050529 38.735907,57.526334 38.421285,73.002139 Z M 100.40709,57 c 0,-9.075 0.1516,-12.7875 0.3369,-8.25 0.18529,4.5375 0.18529,11.9625 0,16.5 -0.1853,4.5375 -0.3369,0.825 -0.3369,-8.25 z m 284,0 c 0,-9.075 0.1516,-12.7875 0.3369,-8.25 0.18529,4.5375 0.18529,11.9625 0,16.5 -0.1853,4.5375 -0.3369,0.825 -0.3369,-8.25 z m 61.9977,0.5 c 0.001,-8.8 0.15425,-12.266133 0.33996,-7.702518 0.18572,4.563614 0.18468,11.763614 -0.002,16 C 446.55547,70.033867 446.40352,66.3 446.40479,57.5 Z M 170.79748,41.255245 c 4.56362,-0.185715 11.76362,-0.18468 16,0.0023 4.23639,0.186981 0.50252,0.33893 -8.29748,0.337664 -8.8,-0.0013 -12.26613,-0.15425 -7.70252,-0.339965 z M 259.39739,28 c 0,-7.975 0.1553,-11.2375 0.34512,-7.25 0.18981,3.9875 0.18981,10.5125 0,14.5 -0.18982,3.9875 -0.34512,0.725 -0.34512,-7.25 z"
       id="path4053"
       inkscape:connector-curvature="0" />
    <path
       style="fill:#333333;fill-opacity:1"
       d="M 7,151.5 V 73 H 23 39 V 57.5 42 H 54.5 70 V 28 14 H 116.5 163 V 28 42 H 178.5 194 V 57.5 73 H 209.5 225 V 151.5 230 H 194.5 164 V 198.5 167 H 116.5 69 V 198.5 230 H 38 7 Z m 157,-47 V 73 H 148 132 V 57 41 H 116 100 V 57 73 H 84.5 69 V 104.5 136 H 116.5 164 Z M 260,214 V 198 H 244 228 V 182.5 167 h 31 31 v 16 16 h 47.51405 47.51404 L 384.76405,167.25 384.5,135.5 322.25,135.24243 260,134.98486 V 119.49243 104 H 244 228 V 73 42 h 16 16 V 28 14 H 337.5 415 V 28 42 H 430.5 446 V 57.5 73 H 415.5 385 V 57 41 H 337.5 290 v 32 32 h 62.5 62.5 v 15.5 15.5 h 15.5 15.5 v 31 31 H 430.5 415 v 16 16 H 337.5 260 Z"
       id="path4051"
       inkscape:connector-curvature="0" />
  </g>
  <path
     style="fill:#f9f9f9;stroke-width:0.88363963"
     d="M 5.8122668,149.60107 V 71.840785 H 21.71778 37.623294 V 56.377091 40.913397 H 53.086988 68.550682 V 26.775163 12.636929 h 46.391078 46.39108 v 14.138234 14.138234 h 15.4637 15.46369 v 15.463694 15.463694 h 15.4637 15.46369 v 77.760285 77.76029 h -30.04375 -30.04375 v -31.3692 -31.36921 H 114.94176 66.783402 v 31.36921 31.3692 H 36.297835 5.8122668 Z M 163.10012,102.76817 V 70.957145 H 146.75279 130.40546 V 55.051632 39.146118 H 114.05812 97.71079 V 55.051632 70.957145 H 82.247096 66.783402 v 31.811025 31.81103 h 48.158358 48.15836 z"
     id="path4075"
     inkscape:connector-curvature="0" />
  <path
     style="fill:#f9f9f9;stroke-width:0.88363963"
     d="m 258.53321,211.45585 v -15.90551 h -15.90552 -15.90551 v -15.02188 -15.02187 h 30.48557 30.48556 v 15.90551 15.90551 h 48.15836 48.15837 v -10.9024 c 0,-5.99633 -0.26243,-20.51011 -0.58316,-32.25285 l -0.58315,-21.35044 h -62.15527 -62.15525 v -15.46369 -15.4637 H 242.62769 226.72218 V 71.398965 40.913397 h 15.90551 15.90552 V 26.775163 12.636929 h 77.31846 77.31847 v 14.138234 14.138234 h 15.4637 15.46369 V 55.935271 70.957145 H 414.05378 384.01004 V 55.051632 39.146118 h -48.15837 -48.15836 v 32.252847 32.252845 h 62.73842 62.73841 v 15.4637 15.46369 h 15.4637 15.46369 v 30.48557 30.48557 h -15.46369 -15.4637 v 15.90551 15.90551 h -77.31847 -77.31846 z"
     id="path4077"
     inkscape:connector-curvature="0" />
</svg>
